<?xml version="1.0" standalone="no"?>
<!DOCTYPE svg PUBLIC "-//W3C//DTD SVG 20010904//EN"
 "http://www.w3.org/TR/2001/REC-SVG-20010904/DTD/svg10.dtd">
<svg version="1.0" xmlns="http://www.w3.org/2000/svg"
 width="1921.000000pt" height="540.000000pt" viewBox="0 0 1921.000000 540.000000"
 preserveAspectRatio="xMidYMid meet">

<g transform="translate(0.000000,540.000000) scale(0.100000,-0.100000)"
fill="#00355E" stroke="none">
<path d="M2012 3722 c-61 -187 -112 -350 -112 -363 0 -48 22 -101 58 -141 58
-65 83 -71 291 -78 l184 -5 172 -515 c170 -509 215 -623 295 -740 121 -179
296 -332 488 -429 90 -45 251 -97 361 -115 100 -17 201 -21 201 -8 0 23 -652
1959 -679 2015 -112 234 -318 448 -549 570 -160 84 -389 147 -536 147 l-61 0
-113 -338z"/>
<path d="M3510 4052 c0 -4 146 -445 324 -979 198 -594 340 -1003 365 -1053
119 -239 331 -450 569 -569 93 -47 254 -98 362 -116 102 -16 200 -20 200 -7 0
4 -146 444 -324 977 -337 1013 -361 1074 -467 1225 -108 154 -294 313 -467
399 -89 45 -251 97 -356 116 -94 16 -206 20 -206 7z"/>
<path d="M4890 4053 c0 -29 658 -1974 688 -2034 120 -239 331 -449 570 -568
93 -47 254 -98 362 -116 102 -16 200 -20 200 -7 0 29 -655 1962 -685 2022
-121 242 -320 447 -552 568 -153 79 -384 142 -524 142 -33 0 -59 -3 -59 -7z"/>
<path d="M15650 3193 c-1 -150 -3 -193 -12 -178 -20 38 -53 67 -103 93 -44 24
-62 27 -145 27 -109 0 -160 -18 -228 -80 -136 -122 -170 -380 -77 -572 58
-118 152 -182 280 -191 39 -2 88 1 110 7 57 15 132 65 155 103 l20 33 0 -62 0
-63 110 0 110 0 0 540 0 540 -110 0 -110 0 0 -197z m-115 -252 c48 -22 79 -54
99 -102 36 -86 28 -213 -17 -281 -88 -130 -287 -107 -344 40 -21 56 -24 169
-4 225 38 112 161 166 266 118z"/>
<path d="M7705 3323 c-3 -10 -94 -239 -201 -510 -107 -271 -194 -495 -194
-498 0 -3 53 -5 118 -5 l117 0 31 88 31 87 221 3 220 2 13 -37 c6 -21 20 -62
31 -90 l19 -53 121 0 c66 0 118 4 116 9 -1 5 -93 237 -203 515 l-200 506 -116
0 c-102 0 -118 -2 -124 -17z m205 -456 c39 -109 70 -201 67 -203 -2 -3 -72 -3
-154 -2 l-149 3 75 207 c41 114 78 204 82 200 4 -4 39 -96 79 -205z"/>
<path d="M8466 2853 c-43 -269 -81 -500 -83 -515 l-5 -28 116 0 c64 0 116 3
116 8 0 11 111 706 113 709 1 1 52 -159 112 -355 l111 -357 111 -3 111 -3 16
53 c85 287 205 660 209 648 3 -8 29 -166 58 -350 28 -184 55 -339 59 -343 3
-4 56 -6 116 -5 l110 3 -77 480 c-43 264 -80 495 -84 512 l-6 33 -138 0 -138
0 -112 -377 c-62 -208 -116 -384 -120 -391 -4 -7 -49 128 -101 300 -51 172
-104 348 -117 391 l-24 77 -137 0 -138 0 -78 -487z"/>
<path d="M9870 2825 l0 -515 115 0 115 0 0 200 0 200 195 0 195 0 0 90 0 90
-195 0 -195 0 0 125 0 125 210 0 210 0 0 100 0 100 -325 0 -325 0 0 -515z"/>
<path d="M10907 3130 c-248 -63 -369 -333 -267 -602 40 -108 150 -198 279
-228 33 -8 89 -11 145 -7 123 6 195 34 261 101 53 53 93 123 78 136 -13 12
-188 31 -191 20 -8 -23 -44 -59 -76 -74 -39 -18 -150 -22 -193 -5 -46 17 -92
69 -108 123 -8 27 -15 56 -15 63 0 10 58 13 299 13 l299 0 6 24 c9 36 -10 155
-35 223 -30 79 -112 161 -194 193 -67 26 -221 36 -288 20z m214 -166 c35 -18
78 -69 85 -102 3 -15 7 -33 10 -39 3 -10 -41 -13 -197 -13 l-199 0 6 28 c18
73 62 119 131 138 53 14 123 9 164 -12z"/>
<path d="M11959 3130 c-59 -10 -85 -23 -131 -68 l-38 -36 0 47 0 47 -110 0
-110 0 0 -405 0 -405 110 0 110 0 0 228 c0 127 5 244 11 265 13 49 61 103 105
117 19 7 57 10 84 8 l48 -3 7 55 c3 30 9 76 12 103 5 38 3 47 -10 47 -8 0 -21
2 -29 4 -7 2 -34 0 -59 -4z"/>
<path d="M12527 3124 c-29 -9 -65 -31 -92 -58 l-45 -43 0 49 0 48 -110 0 -110
0 0 -405 0 -405 110 0 109 0 3 263 c3 235 5 266 22 301 30 61 67 78 158 74 65
-3 80 -7 103 -28 58 -54 60 -63 63 -347 l4 -263 109 0 109 0 0 243 c0 350 -18
436 -105 516 -73 67 -213 90 -328 55z"/>
<path d="M13343 3126 c-179 -58 -279 -262 -244 -497 22 -145 97 -256 210 -310
55 -26 168 -36 226 -20 57 15 132 65 155 103 l20 33 0 -62 0 -63 110 0 110 0
0 405 0 405 -110 0 -110 0 0 -62 0 -61 -28 39 c-16 21 -53 52 -83 68 -44 25
-68 30 -134 33 -49 2 -96 -3 -122 -11z m252 -185 c48 -22 79 -54 99 -102 36
-86 28 -213 -17 -281 -88 -130 -287 -107 -344 40 -21 56 -24 169 -4 225 38
112 161 166 266 118z"/>
<path d="M14467 3124 c-29 -9 -65 -31 -92 -58 l-45 -43 0 49 0 48 -110 0 -110
0 0 -405 0 -405 110 0 109 0 3 263 c3 235 5 266 22 301 30 61 67 78 158 74 65
-3 80 -7 103 -28 58 -54 60 -63 63 -347 l4 -263 109 0 109 0 0 243 c0 350 -18
436 -105 516 -73 67 -213 90 -328 55z"/>
<path d="M16327 3130 c-248 -63 -369 -333 -267 -602 40 -108 150 -198 279
-228 33 -8 89 -11 145 -7 123 6 195 34 261 101 53 53 93 123 78 136 -13 12
-188 31 -191 20 -8 -23 -44 -59 -76 -74 -39 -18 -150 -22 -193 -5 -46 17 -92
69 -108 123 -8 27 -15 56 -15 63 0 10 58 13 299 13 l299 0 6 24 c9 36 -10 155
-35 223 -30 79 -112 161 -194 193 -67 26 -221 36 -288 20z m214 -166 c35 -18
78 -69 85 -102 3 -15 7 -33 10 -39 3 -10 -41 -13 -197 -13 l-199 0 6 28 c18
73 62 119 131 138 53 14 123 9 164 -12z"/>
<path d="M17180 3125 c-141 -40 -210 -118 -210 -240 0 -70 17 -112 64 -153 50
-43 89 -59 239 -93 70 -16 140 -35 156 -44 49 -25 56 -78 15 -116 -21 -20 -38
-24 -100 -27 -92 -5 -153 15 -189 62 l-25 32 -95 -15 c-95 -15 -96 -15 -90
-40 16 -62 96 -134 194 -173 48 -19 75 -22 186 -22 158 0 219 19 295 93 103
99 94 271 -18 342 -53 34 -113 52 -241 74 -150 26 -198 61 -171 124 32 79 199
78 265 -1 l26 -30 95 17 c89 16 94 18 88 38 -17 59 -117 141 -204 168 -59 19
-218 21 -280 4z"/>
<path d="M1531 2222 c-14 -26 -38 -129 -45 -192 -13 -112 29 -286 96 -396 41
-68 137 -165 213 -215 69 -45 197 -89 284 -96 l66 -5 113 339 c61 186 112 351
112 367 0 52 -24 110 -62 148 -63 63 -97 68 -454 68 -290 0 -314 -1 -323 -18z"/>
</g>
</svg>
